# xmcd CD database file
#
# Track frame offsets:
#	150
#	33804
#	76479
#	89204
#	117508
#	156386
#	209145
#
# Disc length: 3053 seconds
#
# Revision: 0
# Processed by: cddbd v1.5.2PL0 Copyright (c) Steve Scherf et al.
# Submitted via: CDex 1.70beta2
#
DISCID=630beb07
DTITLE=Helge Lien Trio - Live
DYEAR=2005
DGENRE=Jazz
TTITLE0=Putte
TTITLE1=En Ganske Liten Runding
TTITLE2=Men, Er Det Jazz
TTITLE3=Spiral Circle
TTITLE4=De Sma Bjornene
TTITLE5=Take Five
TTITLE6=Nav Og Natt
EXTD=YEAR: 2005
EXTT0=
EXTT1=
EXTT2=
EXTT3=
EXTT4=
EXTT5=
EXTT6=
PLAYORDER=
